<?xml version="1.0" encoding="UTF-8" standalone="no"?>
<!-- Created with Inkscape (http://www.inkscape.org/) -->

<svg
   width="170mm"
   height="59mm"
   viewBox="0 0 148.95302 58.10696"
   version="1.1"
   id="svg1"
   inkscape:version="1.4 (e7c3feb1, 2024-10-09)"
   sodipodi:docname="Sociable.svg"
   xmlns:inkscape="http://www.inkscape.org/namespaces/inkscape"
   xmlns:sodipodi="http://sodipodi.sourceforge.net/DTD/sodipodi-0.dtd"
   xmlns="http://www.w3.org/2000/svg"
   xmlns:svg="http://www.w3.org/2000/svg">
  <sodipodi:namedview
     id="namedview1"
     pagecolor="#ffffff"
     bordercolor="#000000"
     borderopacity="0.25"
     inkscape:showpageshadow="2"
     inkscape:pageopacity="0.0"
     inkscape:pagecheckerboard="0"
     inkscape:deskcolor="#d1d1d1"
     inkscape:document-units="mm"
     inkscape:zoom="1.600965"
     inkscape:cx="274.83423"
     inkscape:cy="158.342"
     inkscape:window-width="1384"
     inkscape:window-height="796"
     inkscape:window-x="41"
     inkscape:window-y="73"
     inkscape:window-maximized="0"
     inkscape:current-layer="layer1" />
  <defs
     id="defs1">
    <inkscape:path-effect
       effect="bspline"
       id="path-effect28"
       is_visible="true"
       lpeversion="1.3"
       weight="33.333333"
       steps="2"
       helper_size="0"
       apply_no_weight="true"
       apply_with_weight="true"
       only_selected="false"
       uniform="false" />
    <linearGradient
       id="swatch23"
       inkscape:swatch="solid">
      <stop
         style="stop-color:#da25a5;stop-opacity:1;"
         offset="0"
         id="stop23" />
    </linearGradient>
  </defs>
  <g
     inkscape:label="Layer 1"
     inkscape:groupmode="layer"
     id="layer1"
     transform="translate(-52.617106,-32.559778)">
    <g
       id="implementations"
       class="fragment fade-out"
       data-fragment-index="2">
      <path
         id="rect20-0"
         style="mix-blend-mode:darken;fill:#da4e25;stroke-width:0.673166;stroke-linecap:round;stroke-linejoin:round"
         d="m 153.94854,69.068352 h 16.86063 c 1.23988,0 2.23805,0.998174 2.23805,2.238059 v 16.798448 c 0,1.239885 -0.99817,2.238059 -2.23805,2.238059 h -16.86063 c -1.23989,0 -2.23806,-0.998174 -2.23806,-2.238059 V 71.306411 c 0,-1.239885 0.99817,-2.238059 2.23806,-2.238059 z" />
      <path
         id="rect20-0-9"
         style="mix-blend-mode:darken;fill:#da4e25;stroke-width:0.673166;stroke-linecap:round;stroke-linejoin:round"
         d="m 154.47118,32.867496 h 16.86088 c 1.23989,0 2.23806,0.998175 2.23806,2.23806 v 16.798881 c 0,1.239885 -0.99817,2.238059 -2.23806,2.238059 h -16.86088 c -1.23988,0 -2.23806,-0.998174 -2.23806,-2.238059 V 35.105556 c 0,-1.239885 0.99818,-2.23806 2.23806,-2.23806 z" />
    </g>
    <g
       id="implementations-moved"
       class="fragment fade-in"
       data-fragment-index="2"
       transform="translate(35)">
      <path
         id="rect20-0-7"
         style="mix-blend-mode:darken;fill:#da4e25;stroke-width:0.673166;stroke-linecap:round;stroke-linejoin:round"
         d="m 153.94854,69.068352 h 16.86063 c 1.23988,0 2.23805,0.998174 2.23805,2.238059 v 16.798448 c 0,1.239885 -0.99817,2.238059 -2.23805,2.238059 h -16.86063 c -1.23989,0 -2.23806,-0.998174 -2.23806,-2.238059 V 71.306411 c 0,-1.239885 0.99817,-2.238059 2.23806,-2.238059 z" />
      <path
         id="rect20-0-9-9"
         style="mix-blend-mode:darken;fill:#da4e25;stroke-width:0.673166;stroke-linecap:round;stroke-linejoin:round"
         d="m 154.47118,32.867496 h 16.86088 c 1.23989,0 2.23806,0.998175 2.23806,2.23806 v 16.798881 c 0,1.239885 -0.99817,2.238059 -2.23806,2.238059 h -16.86088 c -1.23988,0 -2.23806,-0.998174 -2.23806,-2.238059 V 35.105556 c 0,-1.239885 0.99818,-2.23806 2.23806,-2.23806 z" />
    </g>
    <g
       id="mocks"
       class="fragment fade-in"
       data-fragment-index="2">
      <rect
         style="mix-blend-mode:darken;fill:none;fill-opacity:1;stroke:#c8c8c8;stroke-width:0.673168;stroke-linecap:round;stroke-linejoin:round;stroke-dasharray:0.673168, 2.01951;stroke-dashoffset:0;stroke-opacity:1"
         id="rect20-0-9-7"
         width="21.336744"
         height="21.274567"
         x="152.16092"
         y="32.896362"
         ry="2.238059" />
      <rect
         style="mix-blend-mode:darken;fill:none;fill-opacity:1;stroke:#c8c8c8;stroke-width:0.673168;stroke-linecap:round;stroke-linejoin:round;stroke-dasharray:0.673168, 2.01951;stroke-dashoffset:0;stroke-opacity:1"
         id="rect20-0-9-7-8"
         width="21.336744"
         height="21.274567"
         x="151.7906"
         y="69.055588"
         ry="2.238059" />
    </g>
    <g
       id="base">
      <rect
         style="opacity:1;mix-blend-mode:darken;fill:#da4e25;fill-opacity:1;stroke:none;stroke-width:0.673166;stroke-linecap:round;stroke-linejoin:round;stroke-dasharray:none;stroke-opacity:1"
         id="rect20"
         width="21.336744"
         height="21.274567"
         x="102.46414"
         y="47.899902"
         ry="2.238059" />
      <path
         style="opacity:1;fill:#da4e25;fill-opacity:1;stroke:#da4e25;stroke-width:1.08576;stroke-linecap:round;stroke-linejoin:round;stroke-dasharray:none;stroke-dashoffset:0;stroke-opacity:1"
         d="m 123.76981,61.238897 27.81576,20.86269"
         id="path25"
         sodipodi:nodetypes="cc" />
      <path
         style="opacity:1;fill:#da4e25;fill-opacity:1;stroke:#da4e25;stroke-width:1.08576;stroke-linecap:round;stroke-linejoin:round;stroke-dasharray:none;stroke-dashoffset:0;stroke-opacity:1"
         d="m 123.76981,56.152718 28.42702,-12.90087"
         id="path26"
         sodipodi:nodetypes="cc" />
    </g>
    <g
       id="test"
       class="fragment fade-in"
       data-fragment-index="1">
      <rect
         style="opacity:1;fill:#008000;fill-opacity:1;stroke:#008000;stroke-width:1.08674;stroke-linecap:round;stroke-linejoin:round;stroke-dasharray:none;stroke-dashoffset:0;stroke-opacity:1"
         id="rect26"
         width="17.387915"
         height="17.387915"
         x="77.988991"
         y="-15.652721"
         ry="2.1734893"
         transform="matrix(0.68545673,0.72811337,-0.68545673,0.72811337,0,0)"
         rx="0" />
      <path
         style="opacity:1;fill:#da4e25;fill-opacity:1;stroke:#008000;stroke-width:1.08575;stroke-linecap:round;stroke-linejoin:round;stroke-dasharray:none;stroke-dashoffset:0;stroke-opacity:1"
         d="m 74.380557,57.945642 28.236243,0.09002"
         id="path27"
         sodipodi:nodetypes="cc" />
      <path
         style="opacity:1;fill:none;fill-opacity:1;stroke:#008000;stroke-width:4.7;stroke-linecap:round;stroke-linejoin:round;stroke-dasharray:18.8, 18.8;stroke-dashoffset:0;stroke-opacity:1"
         d="m 260.50913,96.65166 c -11.43191,28.06016 -15.9354,74.82709 0.3468,106.35163 16.2822,31.52454 53.34857,47.80603 88.85713,39.49158 35.50857,-8.31445 69.45721,-41.22385 79.67652,-77.77175 C 439.6089,128.17522 426.09871,87.991111 402.02206,68.245082 377.94541,48.499054 343.30391,49.191883 316.80247,54.21509 290.30104,59.238297 271.94105,68.5915 260.50913,96.65166 Z"
         id="path28"
         inkscape:path-effect="#path-effect28"
         inkscape:original-d="m 253.5807,77.944886 c -4.50349,46.766934 -9.00697,93.533864 -13.51045,140.300794 37.06788,16.28215 74.13425,32.56364 111.20137,48.84545 33.95001,-32.91071 67.89865,-65.82011 101.848,-98.73018 -13.51074,-40.18572 -27.02092,-80.369835 -40.53136,-120.554753 -34.64285,0.692856 -69.28435,1.385686 -103.92651,2.078529 -18.36071,9.353574 -36.7207,18.706775 -55.08105,28.06016 z"
         transform="matrix(0.1885635,0,0,0.19319396,48.739897,30.255648)" />
    </g>
  </g>
</svg>
